<mxfile host="app.diagrams.net" modified="2022-06-07T04:07:32.511Z" agent="5.0 (Windows)" etag="yCa2BTl8gyB6EAj9nNOM" version="18.2.0" type="github">
  <diagram id="HF1T-lrZuITMvaI3ARa5" name="Page-1">
    <mxGraphModel dx="1662" dy="752" grid="1" gridSize="10" guides="1" tooltips="1" connect="1" arrows="1" fold="1" page="1" pageScale="1" pageWidth="4681" pageHeight="3300" math="0" shadow="0">
      <root>
        <mxCell id="0" />
        <mxCell id="1" parent="0" />
        <mxCell id="ge-oMqZ7D7MzEekQnzG1-1" value="dim_players" style="swimlane;fontStyle=0;childLayout=stackLayout;horizontal=1;startSize=30;horizontalStack=0;resizeParent=1;resizeParentMax=0;resizeLast=0;collapsible=1;marginBottom=0;" parent="1" vertex="1">
          <mxGeometry x="610" y="610" width="140" height="180" as="geometry" />
        </mxCell>
        <mxCell id="ge-oMqZ7D7MzEekQnzG1-2" value="id" style="text;strokeColor=none;fillColor=none;align=left;verticalAlign=middle;spacingLeft=4;spacingRight=4;overflow=hidden;points=[[0,0.5],[1,0.5]];portConstraint=eastwest;rotatable=0;" parent="ge-oMqZ7D7MzEekQnzG1-1" vertex="1">
          <mxGeometry y="30" width="140" height="30" as="geometry" />
        </mxCell>
        <mxCell id="ge-oMqZ7D7MzEekQnzG1-3" value="name" style="text;strokeColor=none;fillColor=none;align=left;verticalAlign=middle;spacingLeft=4;spacingRight=4;overflow=hidden;points=[[0,0.5],[1,0.5]];portConstraint=eastwest;rotatable=0;" parent="ge-oMqZ7D7MzEekQnzG1-1" vertex="1">
          <mxGeometry y="60" width="140" height="30" as="geometry" />
        </mxCell>
        <mxCell id="ge-oMqZ7D7MzEekQnzG1-4" value="birthdate" style="text;strokeColor=none;fillColor=none;align=left;verticalAlign=middle;spacingLeft=4;spacingRight=4;overflow=hidden;points=[[0,0.5],[1,0.5]];portConstraint=eastwest;rotatable=0;" parent="ge-oMqZ7D7MzEekQnzG1-1" vertex="1">
          <mxGeometry y="90" width="140" height="30" as="geometry" />
        </mxCell>
        <mxCell id="ge-oMqZ7D7MzEekQnzG1-5" value="country_id" style="text;strokeColor=none;fillColor=none;align=left;verticalAlign=middle;spacingLeft=4;spacingRight=4;overflow=hidden;points=[[0,0.5],[1,0.5]];portConstraint=eastwest;rotatable=0;" parent="ge-oMqZ7D7MzEekQnzG1-1" vertex="1">
          <mxGeometry y="120" width="140" height="30" as="geometry" />
        </mxCell>
        <mxCell id="ge-oMqZ7D7MzEekQnzG1-6" value="gender" style="text;strokeColor=none;fillColor=none;align=left;verticalAlign=middle;spacingLeft=4;spacingRight=4;overflow=hidden;points=[[0,0.5],[1,0.5]];portConstraint=eastwest;rotatable=0;" parent="ge-oMqZ7D7MzEekQnzG1-1" vertex="1">
          <mxGeometry y="150" width="140" height="30" as="geometry" />
        </mxCell>
        <mxCell id="ge-oMqZ7D7MzEekQnzG1-7" value="dim_items" style="swimlane;fontStyle=0;childLayout=stackLayout;horizontal=1;startSize=30;horizontalStack=0;resizeParent=1;resizeParentMax=0;resizeLast=0;collapsible=1;marginBottom=0;" parent="1" vertex="1">
          <mxGeometry x="640" y="860" width="140" height="120" as="geometry" />
        </mxCell>
        <mxCell id="ge-oMqZ7D7MzEekQnzG1-8" value="id" style="text;strokeColor=none;fillColor=none;align=left;verticalAlign=middle;spacingLeft=4;spacingRight=4;overflow=hidden;points=[[0,0.5],[1,0.5]];portConstraint=eastwest;rotatable=0;" parent="ge-oMqZ7D7MzEekQnzG1-7" vertex="1">
          <mxGeometry y="30" width="140" height="30" as="geometry" />
        </mxCell>
        <mxCell id="ge-oMqZ7D7MzEekQnzG1-9" value="name" style="text;strokeColor=none;fillColor=none;align=left;verticalAlign=middle;spacingLeft=4;spacingRight=4;overflow=hidden;points=[[0,0.5],[1,0.5]];portConstraint=eastwest;rotatable=0;" parent="ge-oMqZ7D7MzEekQnzG1-7" vertex="1">
          <mxGeometry y="60" width="140" height="30" as="geometry" />
        </mxCell>
        <mxCell id="ge-oMqZ7D7MzEekQnzG1-10" value="level" style="text;strokeColor=none;fillColor=none;align=left;verticalAlign=middle;spacingLeft=4;spacingRight=4;overflow=hidden;points=[[0,0.5],[1,0.5]];portConstraint=eastwest;rotatable=0;" parent="ge-oMqZ7D7MzEekQnzG1-7" vertex="1">
          <mxGeometry y="90" width="140" height="30" as="geometry" />
        </mxCell>
        <mxCell id="ge-oMqZ7D7MzEekQnzG1-11" value="dim_platforms" style="swimlane;fontStyle=0;childLayout=stackLayout;horizontal=1;startSize=30;horizontalStack=0;resizeParent=1;resizeParentMax=0;resizeLast=0;collapsible=1;marginBottom=0;" parent="1" vertex="1">
          <mxGeometry x="1120" y="570" width="140" height="150" as="geometry" />
        </mxCell>
        <mxCell id="ge-oMqZ7D7MzEekQnzG1-12" value="id" style="text;strokeColor=none;fillColor=none;align=left;verticalAlign=middle;spacingLeft=4;spacingRight=4;overflow=hidden;points=[[0,0.5],[1,0.5]];portConstraint=eastwest;rotatable=0;" parent="ge-oMqZ7D7MzEekQnzG1-11" vertex="1">
          <mxGeometry y="30" width="140" height="30" as="geometry" />
        </mxCell>
        <mxCell id="ge-oMqZ7D7MzEekQnzG1-13" value="name" style="text;strokeColor=none;fillColor=none;align=left;verticalAlign=middle;spacingLeft=4;spacingRight=4;overflow=hidden;points=[[0,0.5],[1,0.5]];portConstraint=eastwest;rotatable=0;" parent="ge-oMqZ7D7MzEekQnzG1-11" vertex="1">
          <mxGeometry y="60" width="140" height="30" as="geometry" />
        </mxCell>
        <mxCell id="ge-oMqZ7D7MzEekQnzG1-14" value="qty_players" style="text;strokeColor=none;fillColor=none;align=left;verticalAlign=middle;spacingLeft=4;spacingRight=4;overflow=hidden;points=[[0,0.5],[1,0.5]];portConstraint=eastwest;rotatable=0;" parent="ge-oMqZ7D7MzEekQnzG1-11" vertex="1">
          <mxGeometry y="90" width="140" height="30" as="geometry" />
        </mxCell>
        <mxCell id="ge-oMqZ7D7MzEekQnzG1-15" value="SO" style="text;strokeColor=none;fillColor=none;align=left;verticalAlign=middle;spacingLeft=4;spacingRight=4;overflow=hidden;points=[[0,0.5],[1,0.5]];portConstraint=eastwest;rotatable=0;" parent="ge-oMqZ7D7MzEekQnzG1-11" vertex="1">
          <mxGeometry y="120" width="140" height="30" as="geometry" />
        </mxCell>
        <mxCell id="ge-oMqZ7D7MzEekQnzG1-16" value="Countries" style="swimlane;fontStyle=0;childLayout=stackLayout;horizontal=1;startSize=30;horizontalStack=0;resizeParent=1;resizeParentMax=0;resizeLast=0;collapsible=1;marginBottom=0;" parent="1" vertex="1">
          <mxGeometry x="310" y="655" width="140" height="90" as="geometry" />
        </mxCell>
        <mxCell id="ge-oMqZ7D7MzEekQnzG1-17" value="id" style="text;strokeColor=none;fillColor=none;align=left;verticalAlign=middle;spacingLeft=4;spacingRight=4;overflow=hidden;points=[[0,0.5],[1,0.5]];portConstraint=eastwest;rotatable=0;" parent="ge-oMqZ7D7MzEekQnzG1-16" vertex="1">
          <mxGeometry y="30" width="140" height="30" as="geometry" />
        </mxCell>
        <mxCell id="ge-oMqZ7D7MzEekQnzG1-18" value="name" style="text;strokeColor=none;fillColor=none;align=left;verticalAlign=middle;spacingLeft=4;spacingRight=4;overflow=hidden;points=[[0,0.5],[1,0.5]];portConstraint=eastwest;rotatable=0;" parent="ge-oMqZ7D7MzEekQnzG1-16" vertex="1">
          <mxGeometry y="60" width="140" height="30" as="geometry" />
        </mxCell>
        <mxCell id="ge-oMqZ7D7MzEekQnzG1-19" value="" style="edgeStyle=entityRelationEdgeStyle;fontSize=12;html=1;endArrow=ERmany;rounded=0;exitX=1;exitY=0.5;exitDx=0;exitDy=0;entryX=-0.01;entryY=0;entryDx=0;entryDy=0;entryPerimeter=0;" parent="1" source="ge-oMqZ7D7MzEekQnzG1-17" target="ge-oMqZ7D7MzEekQnzG1-4" edge="1">
          <mxGeometry width="100" height="100" relative="1" as="geometry">
            <mxPoint x="620" y="410" as="sourcePoint" />
            <mxPoint x="610" y="360" as="targetPoint" />
          </mxGeometry>
        </mxCell>
        <mxCell id="ge-oMqZ7D7MzEekQnzG1-20" value="dim_payment_methods" style="swimlane;fontStyle=0;childLayout=stackLayout;horizontal=1;startSize=30;horizontalStack=0;resizeParent=1;resizeParentMax=0;resizeLast=0;collapsible=1;marginBottom=0;" parent="1" vertex="1">
          <mxGeometry x="1110" y="990" width="140" height="90" as="geometry" />
        </mxCell>
        <mxCell id="ge-oMqZ7D7MzEekQnzG1-21" value="id" style="text;strokeColor=none;fillColor=none;align=left;verticalAlign=middle;spacingLeft=4;spacingRight=4;overflow=hidden;points=[[0,0.5],[1,0.5]];portConstraint=eastwest;rotatable=0;" parent="ge-oMqZ7D7MzEekQnzG1-20" vertex="1">
          <mxGeometry y="30" width="140" height="30" as="geometry" />
        </mxCell>
        <mxCell id="ge-oMqZ7D7MzEekQnzG1-22" value="name" style="text;strokeColor=none;fillColor=none;align=left;verticalAlign=middle;spacingLeft=4;spacingRight=4;overflow=hidden;points=[[0,0.5],[1,0.5]];portConstraint=eastwest;rotatable=0;" parent="ge-oMqZ7D7MzEekQnzG1-20" vertex="1">
          <mxGeometry y="60" width="140" height="30" as="geometry" />
        </mxCell>
        <mxCell id="ge-oMqZ7D7MzEekQnzG1-23" value="dim_time" style="swimlane;fontStyle=0;childLayout=stackLayout;horizontal=1;startSize=30;horizontalStack=0;resizeParent=1;resizeParentMax=0;resizeLast=0;collapsible=1;marginBottom=0;" parent="1" vertex="1">
          <mxGeometry x="1320" y="750" width="140" height="180" as="geometry" />
        </mxCell>
        <mxCell id="ge-oMqZ7D7MzEekQnzG1-24" value="id" style="text;strokeColor=none;fillColor=none;align=left;verticalAlign=middle;spacingLeft=4;spacingRight=4;overflow=hidden;points=[[0,0.5],[1,0.5]];portConstraint=eastwest;rotatable=0;" parent="ge-oMqZ7D7MzEekQnzG1-23" vertex="1">
          <mxGeometry y="30" width="140" height="30" as="geometry" />
        </mxCell>
        <mxCell id="ge-oMqZ7D7MzEekQnzG1-25" value="day" style="text;strokeColor=none;fillColor=none;align=left;verticalAlign=middle;spacingLeft=4;spacingRight=4;overflow=hidden;points=[[0,0.5],[1,0.5]];portConstraint=eastwest;rotatable=0;" parent="ge-oMqZ7D7MzEekQnzG1-23" vertex="1">
          <mxGeometry y="60" width="140" height="30" as="geometry" />
        </mxCell>
        <mxCell id="ge-oMqZ7D7MzEekQnzG1-26" value="week" style="text;strokeColor=none;fillColor=none;align=left;verticalAlign=middle;spacingLeft=4;spacingRight=4;overflow=hidden;points=[[0,0.5],[1,0.5]];portConstraint=eastwest;rotatable=0;" parent="ge-oMqZ7D7MzEekQnzG1-23" vertex="1">
          <mxGeometry y="90" width="140" height="30" as="geometry" />
        </mxCell>
        <mxCell id="ge-oMqZ7D7MzEekQnzG1-27" value="month" style="text;strokeColor=none;fillColor=none;align=left;verticalAlign=middle;spacingLeft=4;spacingRight=4;overflow=hidden;points=[[0,0.5],[1,0.5]];portConstraint=eastwest;rotatable=0;" parent="ge-oMqZ7D7MzEekQnzG1-23" vertex="1">
          <mxGeometry y="120" width="140" height="30" as="geometry" />
        </mxCell>
        <mxCell id="ge-oMqZ7D7MzEekQnzG1-28" value="year" style="text;strokeColor=none;fillColor=none;align=left;verticalAlign=middle;spacingLeft=4;spacingRight=4;overflow=hidden;points=[[0,0.5],[1,0.5]];portConstraint=eastwest;rotatable=0;" parent="ge-oMqZ7D7MzEekQnzG1-23" vertex="1">
          <mxGeometry y="150" width="140" height="30" as="geometry" />
        </mxCell>
        <mxCell id="ge-oMqZ7D7MzEekQnzG1-29" value="h_purchases" style="swimlane;fontStyle=0;childLayout=stackLayout;horizontal=1;startSize=30;horizontalStack=0;resizeParent=1;resizeParentMax=0;resizeLast=0;collapsible=1;marginBottom=0;" parent="1" vertex="1">
          <mxGeometry x="910" y="750" width="140" height="270" as="geometry" />
        </mxCell>
        <mxCell id="ge-oMqZ7D7MzEekQnzG1-30" value="id" style="text;strokeColor=none;fillColor=none;align=left;verticalAlign=middle;spacingLeft=4;spacingRight=4;overflow=hidden;points=[[0,0.5],[1,0.5]];portConstraint=eastwest;rotatable=0;" parent="ge-oMqZ7D7MzEekQnzG1-29" vertex="1">
          <mxGeometry y="30" width="140" height="30" as="geometry" />
        </mxCell>
        <mxCell id="ge-oMqZ7D7MzEekQnzG1-31" value="id_dim_player" style="text;strokeColor=none;fillColor=none;align=left;verticalAlign=middle;spacingLeft=4;spacingRight=4;overflow=hidden;points=[[0,0.5],[1,0.5]];portConstraint=eastwest;rotatable=0;" parent="ge-oMqZ7D7MzEekQnzG1-29" vertex="1">
          <mxGeometry y="60" width="140" height="30" as="geometry" />
        </mxCell>
        <mxCell id="ge-oMqZ7D7MzEekQnzG1-32" value="id_dim_item" style="text;strokeColor=none;fillColor=none;align=left;verticalAlign=middle;spacingLeft=4;spacingRight=4;overflow=hidden;points=[[0,0.5],[1,0.5]];portConstraint=eastwest;rotatable=0;" parent="ge-oMqZ7D7MzEekQnzG1-29" vertex="1">
          <mxGeometry y="90" width="140" height="30" as="geometry" />
        </mxCell>
        <mxCell id="ge-oMqZ7D7MzEekQnzG1-33" value="id_dim_platform" style="text;strokeColor=none;fillColor=none;align=left;verticalAlign=middle;spacingLeft=4;spacingRight=4;overflow=hidden;points=[[0,0.5],[1,0.5]];portConstraint=eastwest;rotatable=0;" parent="ge-oMqZ7D7MzEekQnzG1-29" vertex="1">
          <mxGeometry y="120" width="140" height="30" as="geometry" />
        </mxCell>
        <mxCell id="ge-oMqZ7D7MzEekQnzG1-34" value="id_dim_payment_method" style="text;strokeColor=none;fillColor=none;align=left;verticalAlign=middle;spacingLeft=4;spacingRight=4;overflow=hidden;points=[[0,0.5],[1,0.5]];portConstraint=eastwest;rotatable=0;" parent="ge-oMqZ7D7MzEekQnzG1-29" vertex="1">
          <mxGeometry y="150" width="140" height="30" as="geometry" />
        </mxCell>
        <mxCell id="ge-oMqZ7D7MzEekQnzG1-35" value="id_dim_time" style="text;strokeColor=none;fillColor=none;align=left;verticalAlign=middle;spacingLeft=4;spacingRight=4;overflow=hidden;points=[[0,0.5],[1,0.5]];portConstraint=eastwest;rotatable=0;" parent="ge-oMqZ7D7MzEekQnzG1-29" vertex="1">
          <mxGeometry y="180" width="140" height="30" as="geometry" />
        </mxCell>
        <mxCell id="ge-oMqZ7D7MzEekQnzG1-36" value="total_items" style="text;strokeColor=none;fillColor=none;align=left;verticalAlign=middle;spacingLeft=4;spacingRight=4;overflow=hidden;points=[[0,0.5],[1,0.5]];portConstraint=eastwest;rotatable=0;" parent="ge-oMqZ7D7MzEekQnzG1-29" vertex="1">
          <mxGeometry y="210" width="140" height="30" as="geometry" />
        </mxCell>
        <mxCell id="ge-oMqZ7D7MzEekQnzG1-37" value="total_cost" style="text;strokeColor=none;fillColor=none;align=left;verticalAlign=middle;spacingLeft=4;spacingRight=4;overflow=hidden;points=[[0,0.5],[1,0.5]];portConstraint=eastwest;rotatable=0;" parent="ge-oMqZ7D7MzEekQnzG1-29" vertex="1">
          <mxGeometry y="240" width="140" height="30" as="geometry" />
        </mxCell>
        <mxCell id="ge-oMqZ7D7MzEekQnzG1-38" value="" style="edgeStyle=entityRelationEdgeStyle;fontSize=12;html=1;endArrow=ERmany;rounded=0;exitX=1;exitY=0.5;exitDx=0;exitDy=0;entryX=0;entryY=0.5;entryDx=0;entryDy=0;" parent="1" source="ge-oMqZ7D7MzEekQnzG1-8" target="ge-oMqZ7D7MzEekQnzG1-33" edge="1">
          <mxGeometry width="100" height="100" relative="1" as="geometry">
            <mxPoint x="1070" y="590" as="sourcePoint" />
            <mxPoint x="1170" y="490" as="targetPoint" />
          </mxGeometry>
        </mxCell>
        <mxCell id="ge-oMqZ7D7MzEekQnzG1-39" value="" style="edgeStyle=entityRelationEdgeStyle;fontSize=12;html=1;endArrow=ERmany;rounded=0;exitX=0;exitY=0.5;exitDx=0;exitDy=0;entryX=1;entryY=0.5;entryDx=0;entryDy=0;" parent="1" source="ge-oMqZ7D7MzEekQnzG1-25" target="ge-oMqZ7D7MzEekQnzG1-31" edge="1">
          <mxGeometry width="100" height="100" relative="1" as="geometry">
            <mxPoint x="1070" y="590" as="sourcePoint" />
            <mxPoint x="1170" y="490" as="targetPoint" />
          </mxGeometry>
        </mxCell>
        <mxCell id="ge-oMqZ7D7MzEekQnzG1-40" value="" style="edgeStyle=entityRelationEdgeStyle;fontSize=12;html=1;endArrow=ERmany;rounded=0;exitX=0;exitY=0.5;exitDx=0;exitDy=0;entryX=1.005;entryY=0.742;entryDx=0;entryDy=0;entryPerimeter=0;" parent="1" source="ge-oMqZ7D7MzEekQnzG1-13" target="ge-oMqZ7D7MzEekQnzG1-32" edge="1">
          <mxGeometry width="100" height="100" relative="1" as="geometry">
            <mxPoint x="1070" y="590" as="sourcePoint" />
            <mxPoint x="1060" y="869" as="targetPoint" />
          </mxGeometry>
        </mxCell>
        <mxCell id="ge-oMqZ7D7MzEekQnzG1-41" value="" style="edgeStyle=entityRelationEdgeStyle;fontSize=12;html=1;endArrow=ERmany;rounded=0;entryX=1;entryY=0.5;entryDx=0;entryDy=0;" parent="1" source="ge-oMqZ7D7MzEekQnzG1-20" target="ge-oMqZ7D7MzEekQnzG1-33" edge="1">
          <mxGeometry width="100" height="100" relative="1" as="geometry">
            <mxPoint x="1070" y="590" as="sourcePoint" />
            <mxPoint x="1170" y="490" as="targetPoint" />
          </mxGeometry>
        </mxCell>
        <mxCell id="ge-oMqZ7D7MzEekQnzG1-42" value="h_sessions" style="swimlane;fontStyle=0;childLayout=stackLayout;horizontal=1;startSize=30;horizontalStack=0;resizeParent=1;resizeParentMax=0;resizeLast=0;collapsible=1;marginBottom=0;" parent="1" vertex="1">
          <mxGeometry x="760" y="380" width="140" height="180" as="geometry" />
        </mxCell>
        <mxCell id="ge-oMqZ7D7MzEekQnzG1-43" value="id" style="text;strokeColor=none;fillColor=none;align=left;verticalAlign=middle;spacingLeft=4;spacingRight=4;overflow=hidden;points=[[0,0.5],[1,0.5]];portConstraint=eastwest;rotatable=0;" parent="ge-oMqZ7D7MzEekQnzG1-42" vertex="1">
          <mxGeometry y="30" width="140" height="30" as="geometry" />
        </mxCell>
        <mxCell id="ge-oMqZ7D7MzEekQnzG1-44" value="id_dim_player" style="text;strokeColor=none;fillColor=none;align=left;verticalAlign=middle;spacingLeft=4;spacingRight=4;overflow=hidden;points=[[0,0.5],[1,0.5]];portConstraint=eastwest;rotatable=0;" parent="ge-oMqZ7D7MzEekQnzG1-42" vertex="1">
          <mxGeometry y="60" width="140" height="30" as="geometry" />
        </mxCell>
        <mxCell id="ge-oMqZ7D7MzEekQnzG1-45" value="id_dim_platform" style="text;strokeColor=none;fillColor=none;align=left;verticalAlign=middle;spacingLeft=4;spacingRight=4;overflow=hidden;points=[[0,0.5],[1,0.5]];portConstraint=eastwest;rotatable=0;" parent="ge-oMqZ7D7MzEekQnzG1-42" vertex="1">
          <mxGeometry y="90" width="140" height="30" as="geometry" />
        </mxCell>
        <mxCell id="ge-oMqZ7D7MzEekQnzG1-46" value="id_dim_time" style="text;strokeColor=none;fillColor=none;align=left;verticalAlign=middle;spacingLeft=4;spacingRight=4;overflow=hidden;points=[[0,0.5],[1,0.5]];portConstraint=eastwest;rotatable=0;" parent="ge-oMqZ7D7MzEekQnzG1-42" vertex="1">
          <mxGeometry y="120" width="140" height="30" as="geometry" />
        </mxCell>
        <mxCell id="ge-oMqZ7D7MzEekQnzG1-47" value="total_session" style="text;strokeColor=none;fillColor=none;align=left;verticalAlign=middle;spacingLeft=4;spacingRight=4;overflow=hidden;points=[[0,0.5],[1,0.5]];portConstraint=eastwest;rotatable=0;" parent="ge-oMqZ7D7MzEekQnzG1-42" vertex="1">
          <mxGeometry y="150" width="140" height="30" as="geometry" />
        </mxCell>
        <mxCell id="ge-oMqZ7D7MzEekQnzG1-48" value="" style="edgeStyle=entityRelationEdgeStyle;fontSize=12;html=1;endArrow=ERmany;rounded=0;exitX=0.39;exitY=-0.001;exitDx=0;exitDy=0;exitPerimeter=0;entryX=-0.001;entryY=-0.093;entryDx=0;entryDy=0;entryPerimeter=0;" parent="1" source="ge-oMqZ7D7MzEekQnzG1-1" target="ge-oMqZ7D7MzEekQnzG1-45" edge="1">
          <mxGeometry width="100" height="100" relative="1" as="geometry">
            <mxPoint x="860" y="550" as="sourcePoint" />
            <mxPoint x="960" y="450" as="targetPoint" />
          </mxGeometry>
        </mxCell>
        <mxCell id="ge-oMqZ7D7MzEekQnzG1-49" value="" style="edgeStyle=entityRelationEdgeStyle;fontSize=12;html=1;endArrow=ERmany;rounded=0;" parent="1" target="ge-oMqZ7D7MzEekQnzG1-44" edge="1">
          <mxGeometry width="100" height="100" relative="1" as="geometry">
            <mxPoint x="1160.0000000000005" y="570.0000000000002" as="sourcePoint" />
            <mxPoint x="960" y="450" as="targetPoint" />
          </mxGeometry>
        </mxCell>
        <mxCell id="ge-oMqZ7D7MzEekQnzG1-50" value="" style="edgeStyle=entityRelationEdgeStyle;fontSize=12;html=1;endArrow=ERmany;rounded=0;entryX=1.024;entryY=0.13;entryDx=0;entryDy=0;entryPerimeter=0;" parent="1" target="ge-oMqZ7D7MzEekQnzG1-42" edge="1">
          <mxGeometry width="100" height="100" relative="1" as="geometry">
            <mxPoint x="1460.0000000000005" y="800.0000000000002" as="sourcePoint" />
            <mxPoint x="970" y="600" as="targetPoint" />
          </mxGeometry>
        </mxCell>
        <mxCell id="ge-oMqZ7D7MzEekQnzG1-51" value="" style="edgeStyle=entityRelationEdgeStyle;fontSize=12;html=1;endArrow=ERmany;rounded=0;exitX=1;exitY=0.5;exitDx=0;exitDy=0;entryX=-0.006;entryY=0.77;entryDx=0;entryDy=0;entryPerimeter=0;" parent="1" source="ge-oMqZ7D7MzEekQnzG1-3" target="ge-oMqZ7D7MzEekQnzG1-30" edge="1">
          <mxGeometry width="100" height="100" relative="1" as="geometry">
            <mxPoint x="830" y="840" as="sourcePoint" />
            <mxPoint x="930" y="740" as="targetPoint" />
          </mxGeometry>
        </mxCell>
      </root>
    </mxGraphModel>
  </diagram>
</mxfile>
